<mxfile host="app.diagrams.net" modified="2024-07-04T09:06:42.297Z" agent="Mozilla/5.0 (Windows NT 10.0; Win64; x64) AppleWebKit/537.36 (KHTML, like Gecko) Chrome/126.0.0.0 Safari/537.36" etag="XdIMDVrcXTSQ20IP1PM2" version="24.6.4" type="github">
  <diagram name="第 1 页" id="82Qxp0iyxLErjMUtAoAP">
    <mxGraphModel dx="875" dy="442" grid="1" gridSize="10" guides="1" tooltips="1" connect="1" arrows="1" fold="1" page="1" pageScale="1" pageWidth="827" pageHeight="1169" math="0" shadow="0">
      <root>
        <mxCell id="0" />
        <mxCell id="1" parent="0" />
        <mxCell id="WXAf1IBiIAUy5DdhAQUG-1" value="1" style="ellipse;whiteSpace=wrap;html=1;aspect=fixed;" vertex="1" parent="1">
          <mxGeometry x="188" y="130" width="80" height="80" as="geometry" />
        </mxCell>
        <mxCell id="WXAf1IBiIAUy5DdhAQUG-6" value="" style="endArrow=classic;html=1;rounded=0;exitX=1;exitY=0.5;exitDx=0;exitDy=0;entryX=0;entryY=0.5;entryDx=0;entryDy=0;" edge="1" parent="1" source="WXAf1IBiIAUy5DdhAQUG-1" target="WXAf1IBiIAUy5DdhAQUG-7">
          <mxGeometry width="50" height="50" relative="1" as="geometry">
            <mxPoint x="298" y="190" as="sourcePoint" />
            <mxPoint x="348" y="170" as="targetPoint" />
          </mxGeometry>
        </mxCell>
        <mxCell id="WXAf1IBiIAUy5DdhAQUG-7" value="2" style="ellipse;whiteSpace=wrap;html=1;aspect=fixed;" vertex="1" parent="1">
          <mxGeometry x="348" y="130" width="80" height="80" as="geometry" />
        </mxCell>
        <mxCell id="WXAf1IBiIAUy5DdhAQUG-8" value="" style="endArrow=classic;html=1;rounded=0;exitX=1;exitY=0.5;exitDx=0;exitDy=0;" edge="1" source="WXAf1IBiIAUy5DdhAQUG-7" parent="1">
          <mxGeometry width="50" height="50" relative="1" as="geometry">
            <mxPoint x="458" y="190" as="sourcePoint" />
            <mxPoint x="508" y="170" as="targetPoint" />
          </mxGeometry>
        </mxCell>
        <mxCell id="WXAf1IBiIAUy5DdhAQUG-9" value="3" style="ellipse;whiteSpace=wrap;html=1;aspect=fixed;" vertex="1" parent="1">
          <mxGeometry x="508" y="130" width="80" height="80" as="geometry" />
        </mxCell>
        <mxCell id="WXAf1IBiIAUy5DdhAQUG-10" value="" style="endArrow=classic;html=1;rounded=0;exitX=1;exitY=0.5;exitDx=0;exitDy=0;" edge="1" source="WXAf1IBiIAUy5DdhAQUG-9" parent="1">
          <mxGeometry width="50" height="50" relative="1" as="geometry">
            <mxPoint x="618" y="190" as="sourcePoint" />
            <mxPoint x="668" y="170" as="targetPoint" />
          </mxGeometry>
        </mxCell>
        <mxCell id="WXAf1IBiIAUy5DdhAQUG-11" value="4" style="ellipse;whiteSpace=wrap;html=1;aspect=fixed;" vertex="1" parent="1">
          <mxGeometry x="668" y="130" width="80" height="80" as="geometry" />
        </mxCell>
        <mxCell id="WXAf1IBiIAUy5DdhAQUG-12" value="" style="endArrow=classic;html=1;rounded=0;exitX=1;exitY=0.5;exitDx=0;exitDy=0;" edge="1" source="WXAf1IBiIAUy5DdhAQUG-11" parent="1">
          <mxGeometry width="50" height="50" relative="1" as="geometry">
            <mxPoint x="778" y="190" as="sourcePoint" />
            <mxPoint x="828" y="170" as="targetPoint" />
          </mxGeometry>
        </mxCell>
        <mxCell id="WXAf1IBiIAUy5DdhAQUG-13" value="NULL" style="rounded=0;whiteSpace=wrap;html=1;" vertex="1" parent="1">
          <mxGeometry x="828" y="140" width="120" height="60" as="geometry" />
        </mxCell>
        <mxCell id="WXAf1IBiIAUy5DdhAQUG-14" value="dumpNode" style="ellipse;whiteSpace=wrap;html=1;" vertex="1" parent="1">
          <mxGeometry x="20" y="130" width="120" height="80" as="geometry" />
        </mxCell>
        <mxCell id="WXAf1IBiIAUy5DdhAQUG-15" value="" style="endArrow=classic;html=1;rounded=0;entryX=0;entryY=0.5;entryDx=0;entryDy=0;" edge="1" parent="1" source="WXAf1IBiIAUy5DdhAQUG-14" target="WXAf1IBiIAUy5DdhAQUG-1">
          <mxGeometry width="50" height="50" relative="1" as="geometry">
            <mxPoint x="140" y="220" as="sourcePoint" />
            <mxPoint x="180" y="170" as="targetPoint" />
          </mxGeometry>
        </mxCell>
        <mxCell id="WXAf1IBiIAUy5DdhAQUG-16" value="slow" style="endArrow=classic;html=1;rounded=0;" edge="1" parent="1">
          <mxGeometry width="50" height="50" relative="1" as="geometry">
            <mxPoint x="79.57999999999993" y="350" as="sourcePoint" />
            <mxPoint x="79.57999999999993" y="230" as="targetPoint" />
          </mxGeometry>
        </mxCell>
        <mxCell id="WXAf1IBiIAUy5DdhAQUG-17" value="fast" style="endArrow=classic;html=1;rounded=0;" edge="1" parent="1">
          <mxGeometry width="50" height="50" relative="1" as="geometry">
            <mxPoint x="547.5799999999999" y="340" as="sourcePoint" />
            <mxPoint x="547.5799999999999" y="220" as="targetPoint" />
          </mxGeometry>
        </mxCell>
        <mxCell id="WXAf1IBiIAUy5DdhAQUG-18" value="&lt;font style=&quot;font-size: 15px;&quot;&gt;n=2&lt;/font&gt;" style="rounded=1;whiteSpace=wrap;html=1;fillColor=#fff2cc;strokeColor=#d6b656;" vertex="1" parent="1">
          <mxGeometry x="20" y="80" width="220" height="20" as="geometry" />
        </mxCell>
        <mxCell id="WXAf1IBiIAUy5DdhAQUG-19" value="Vertical Container" style="swimlane;whiteSpace=wrap;html=1;" vertex="1" parent="1">
          <mxGeometry x="240" y="310" width="200" height="200" as="geometry" />
        </mxCell>
        <mxCell id="WXAf1IBiIAUy5DdhAQUG-20" value="while" style="whiteSpace=wrap;html=1;" vertex="1" parent="WXAf1IBiIAUy5DdhAQUG-19">
          <mxGeometry x="10" y="30" width="180" height="30" as="geometry" />
        </mxCell>
        <mxCell id="WXAf1IBiIAUy5DdhAQUG-23" value="" style="whiteSpace=wrap;html=1;" vertex="1" parent="WXAf1IBiIAUy5DdhAQUG-19">
          <mxGeometry x="10" y="70" width="180" height="30" as="geometry" />
        </mxCell>
        <mxCell id="WXAf1IBiIAUy5DdhAQUG-24" value="" style="whiteSpace=wrap;html=1;" vertex="1" parent="WXAf1IBiIAUy5DdhAQUG-19">
          <mxGeometry x="10" y="110" width="180" height="30" as="geometry" />
        </mxCell>
        <mxCell id="WXAf1IBiIAUy5DdhAQUG-25" value="" style="whiteSpace=wrap;html=1;" vertex="1" parent="WXAf1IBiIAUy5DdhAQUG-19">
          <mxGeometry x="10" y="150" width="180" height="30" as="geometry" />
        </mxCell>
        <mxCell id="WXAf1IBiIAUy5DdhAQUG-26" value="fast" style="endArrow=classic;html=1;rounded=0;" edge="1" parent="1">
          <mxGeometry width="50" height="50" relative="1" as="geometry">
            <mxPoint x="570" y="460" as="sourcePoint" />
            <mxPoint x="570" y="340" as="targetPoint" />
          </mxGeometry>
        </mxCell>
      </root>
    </mxGraphModel>
  </diagram>
</mxfile>
